<mxfile host="app.diagrams.net" agent="Mozilla/5.0 (Macintosh; Intel Mac OS X 10_15_7) AppleWebKit/537.36 (KHTML, like Gecko) Chrome/133.0.0.0 Safari/537.36" version="26.2.2">
  <diagram name="Page-1" id="qu2VtH5eReiG8bJXHPiz">
    <mxGraphModel dx="998" dy="678" grid="1" gridSize="10" guides="1" tooltips="1" connect="1" arrows="1" fold="1" page="1" pageScale="1" pageWidth="850" pageHeight="1100" background="#ffffff" math="0" shadow="0">
      <root>
        <mxCell id="0" />
        <mxCell id="1" parent="0" />
        <mxCell id="F_B7ZL1ll7IYntP7bItt-32" value="Base Layer" style="swimlane;whiteSpace=wrap;html=1;startSize=40;fontSize=18;align=center;labelBackgroundColor=default;" parent="1" vertex="1">
          <mxGeometry x="140" y="260" width="280" height="200" as="geometry" />
        </mxCell>
        <mxCell id="F_B7ZL1ll7IYntP7bItt-47" value="" style="edgeStyle=orthogonalEdgeStyle;rounded=0;orthogonalLoop=1;jettySize=auto;html=1;exitX=0.5;exitY=1;exitDx=0;exitDy=0;" parent="1" source="F_B7ZL1ll7IYntP7bItt-50" target="F_B7ZL1ll7IYntP7bItt-45" edge="1">
          <mxGeometry relative="1" as="geometry" />
        </mxCell>
        <mxCell id="F_B7ZL1ll7IYntP7bItt-45" value="&lt;span style=&quot;font-size: 18px;&quot;&gt;Experiment Configuration&lt;/span&gt;" style="swimlane;whiteSpace=wrap;html=1;startSize=40;labelBackgroundColor=default;" parent="1" vertex="1">
          <mxGeometry x="140" y="700" width="280" height="150" as="geometry" />
        </mxCell>
        <mxCell id="F_B7ZL1ll7IYntP7bItt-49" value="The experiment configuration file includes all of the configurable experiment parameters such as names, training data paths, database tables, etc.&amp;nbsp;" style="text;html=1;align=left;verticalAlign=middle;whiteSpace=wrap;rounded=0;labelBackgroundColor=default;" parent="F_B7ZL1ll7IYntP7bItt-45" vertex="1">
          <mxGeometry x="20" y="40" width="240" height="110" as="geometry" />
        </mxCell>
        <mxCell id="F_B7ZL1ll7IYntP7bItt-50" value="&lt;font style=&quot;font-size: 24px;&quot;&gt;Experiment Image&lt;/font&gt;" style="swimlane;whiteSpace=wrap;html=1;startSize=50;" parent="1" vertex="1">
          <mxGeometry x="120" y="200" width="320" height="470" as="geometry" />
        </mxCell>
        <mxCell id="F_B7ZL1ll7IYntP7bItt-34" value="&lt;font style=&quot;font-size: 18px;&quot;&gt;Model Layer&lt;/font&gt;" style="swimlane;whiteSpace=wrap;html=1;startSize=40;labelBackgroundColor=default;" parent="F_B7ZL1ll7IYntP7bItt-50" vertex="1">
          <mxGeometry x="20" y="260" width="280" height="190" as="geometry" />
        </mxCell>
        <mxCell id="F_B7ZL1ll7IYntP7bItt-36" value="The model layer is derived from the base layer and includes the models, scorer, and the experiment. Also, the model layer is configurable with an experiment configuration file. The base layer and the model layer together define the experiment image." style="text;html=1;align=left;verticalAlign=middle;whiteSpace=wrap;rounded=0;labelBackgroundColor=default;" parent="F_B7ZL1ll7IYntP7bItt-34" vertex="1">
          <mxGeometry x="20" y="40" width="240" height="150" as="geometry" />
        </mxCell>
        <mxCell id="F_B7ZL1ll7IYntP7bItt-33" value="&lt;div&gt;&lt;span style=&quot;&quot;&gt;The base layer is derived from the continuumio/miniconda3 image and&amp;nbsp;&lt;/span&gt;&lt;span style=&quot;&quot;&gt;includes a virtual environment named experiment along with utilities needed to store results, and logs from an experiment to a database. It is intended to be the base image to the experiment image and is not intended to be run without a model layer.&lt;/span&gt;&lt;/div&gt;" style="text;html=1;align=left;verticalAlign=middle;whiteSpace=wrap;rounded=0;labelBackgroundColor=default;" parent="F_B7ZL1ll7IYntP7bItt-50" vertex="1">
          <mxGeometry x="40" y="110" width="240" height="150" as="geometry" />
        </mxCell>
        <mxCell id="F_B7ZL1ll7IYntP7bItt-56" value="" style="endArrow=classic;html=1;rounded=0;" parent="1" edge="1">
          <mxGeometry relative="1" as="geometry">
            <mxPoint x="70" y="300" as="sourcePoint" />
            <mxPoint x="70" y="780" as="targetPoint" />
          </mxGeometry>
        </mxCell>
        <mxCell id="F_B7ZL1ll7IYntP7bItt-57" value="Sometimes&lt;div&gt;Changing&lt;/div&gt;" style="edgeLabel;resizable=0;html=1;;align=center;verticalAlign=middle;" parent="F_B7ZL1ll7IYntP7bItt-56" connectable="0" vertex="1">
          <mxGeometry relative="1" as="geometry">
            <mxPoint as="offset" />
          </mxGeometry>
        </mxCell>
        <mxCell id="F_B7ZL1ll7IYntP7bItt-58" value="Rarely&lt;div&gt;Changing&lt;/div&gt;" style="edgeLabel;resizable=0;html=1;;align=center;verticalAlign=bottom;" parent="F_B7ZL1ll7IYntP7bItt-56" connectable="0" vertex="1">
          <mxGeometry x="-1" relative="1" as="geometry">
            <mxPoint as="offset" />
          </mxGeometry>
        </mxCell>
        <mxCell id="F_B7ZL1ll7IYntP7bItt-59" value="Always&lt;div&gt;Changing&lt;/div&gt;" style="edgeLabel;resizable=0;html=1;;align=center;verticalAlign=bottom;" parent="F_B7ZL1ll7IYntP7bItt-56" connectable="0" vertex="1">
          <mxGeometry x="1" relative="1" as="geometry">
            <mxPoint y="30" as="offset" />
          </mxGeometry>
        </mxCell>
        <mxCell id="x6d0dntDNhP9VpKKzTVk-2" value="" style="shape=datastore;whiteSpace=wrap;html=1;" vertex="1" parent="1">
          <mxGeometry x="540" y="390" width="120" height="150" as="geometry" />
        </mxCell>
        <mxCell id="x6d0dntDNhP9VpKKzTVk-4" value="&lt;b&gt;&lt;font style=&quot;font-size: 18px;&quot;&gt;Results&lt;/font&gt;&lt;/b&gt;" style="text;html=1;align=center;verticalAlign=middle;whiteSpace=wrap;rounded=0;" vertex="1" parent="1">
          <mxGeometry x="570" y="470" width="60" height="30" as="geometry" />
        </mxCell>
        <mxCell id="x6d0dntDNhP9VpKKzTVk-6" value="" style="shape=datastore;whiteSpace=wrap;html=1;" vertex="1" parent="1">
          <mxGeometry x="540" y="610" width="120" height="150" as="geometry" />
        </mxCell>
        <mxCell id="x6d0dntDNhP9VpKKzTVk-5" value="&lt;b&gt;&lt;font style=&quot;font-size: 18px;&quot;&gt;Model&lt;/font&gt;&lt;/b&gt;&lt;div&gt;&lt;b&gt;&lt;font style=&quot;font-size: 18px;&quot;&gt;&lt;font style=&quot;&quot;&gt;Regi&lt;/font&gt;&lt;font style=&quot;&quot;&gt;stry&lt;/font&gt;&lt;/font&gt;&lt;/b&gt;&lt;/div&gt;" style="text;html=1;align=center;verticalAlign=middle;whiteSpace=wrap;rounded=0;" vertex="1" parent="1">
          <mxGeometry x="570" y="690" width="60" height="30" as="geometry" />
        </mxCell>
        <mxCell id="x6d0dntDNhP9VpKKzTVk-15" value="" style="endArrow=none;dashed=1;html=1;rounded=0;entryX=0;entryY=0.5;entryDx=0;entryDy=0;exitX=1;exitY=0.5;exitDx=0;exitDy=0;" edge="1" parent="1" source="F_B7ZL1ll7IYntP7bItt-50" target="x6d0dntDNhP9VpKKzTVk-2">
          <mxGeometry width="50" height="50" relative="1" as="geometry">
            <mxPoint x="440" y="480" as="sourcePoint" />
            <mxPoint x="490" y="430" as="targetPoint" />
          </mxGeometry>
        </mxCell>
        <mxCell id="x6d0dntDNhP9VpKKzTVk-17" value="" style="endArrow=none;dashed=1;html=1;rounded=0;entryX=0;entryY=0.5;entryDx=0;entryDy=0;exitX=1;exitY=0.5;exitDx=0;exitDy=0;" edge="1" parent="1" source="F_B7ZL1ll7IYntP7bItt-50" target="x6d0dntDNhP9VpKKzTVk-6">
          <mxGeometry width="50" height="50" relative="1" as="geometry">
            <mxPoint x="440" y="480" as="sourcePoint" />
            <mxPoint x="490" y="430" as="targetPoint" />
          </mxGeometry>
        </mxCell>
      </root>
    </mxGraphModel>
  </diagram>
</mxfile>
